<?xml version="1.0" encoding="utf-8"?>
<!-- Generator: Adobe Illustrator 16.0.0, SVG Export Plug-In . SVG Version: 6.00 Build 0)  -->
<!DOCTYPE svg PUBLIC "-//W3C//DTD SVG 1.1//EN" "http://www.w3.org/Graphics/SVG/1.1/DTD/svg11.dtd">
<svg version="1.1" id="Layer_1" xmlns="http://www.w3.org/2000/svg" xmlns:xlink="http://www.w3.org/1999/xlink" x="0px" y="0px"
	 width="254px" height="238px" viewBox="-31 -45 254 238" enable-background="new -31 -45 254 238" xml:space="preserve">
<title>app round.6</title>
<desc>Created with Sketch.</desc>
<g id="Shape">
	<path fill="#9998D1" d="M39.791,128.572c-0.212,0-0.424-0.009-0.636-0.026c-1.776-0.143-3.504-0.899-4.995-2.188
		c-16.123-13.926-30.373-22.829-48.269-34.349c-3.271-2.113-5.513-6.038-5.854-10.245c-0.349-4.348,1.367-8.447,4.478-10.7
		C1.193,58.997,19.792,45.771,35.852,31.75c1.733-1.519,3.805-2.323,5.989-2.323c3.631,0,7.051,2.224,9.149,5.948
		c3.432,6.08,2.349,14.251-2.416,18.213c-11.53,9.63-25.356,18.897-37.194,27.58c12.686,8.379,22.078,13.463,33.883,23.038
		c4.699,3.787,6.135,11.896,3.195,18.07C46.588,126.217,43.348,128.572,39.791,128.572z"/>
	<path fill="#9998D1" d="M41.841,31.927c2.735,0,5.505,1.658,7.266,4.784c2.812,4.98,1.924,11.723-1.859,14.869
		C34.554,62.181,19.833,72.077,7.134,81.282c13.77,8.936,24.062,14.599,36.823,24.949c3.812,3.071,4.944,9.806,2.535,14.866
		c-1.533,3.231-4.104,4.975-6.702,4.975c-0.158,0-0.315-0.007-0.474-0.02c-1.311-0.105-2.616-0.654-3.797-1.676
		C19.263,110.335,5.048,101.458-13,89.84c-2.661-1.719-4.466-4.879-4.744-8.303c-0.274-3.423,1.031-6.608,3.467-8.373
		c16.5-11.938,35.041-25.074,51.497-39.44C38.602,32.513,40.216,31.927,41.841,31.927 M41.841,26.927L41.841,26.927
		c-2.686,0-5.232,0.988-7.364,2.856C18.475,43.752-0.069,56.936-16.691,68.961c-3.811,2.76-5.914,7.75-5.491,13.023
		c0.413,5.085,3.014,9.64,6.959,12.188c17.814,11.469,31.98,20.308,48.025,34.166c1.836,1.588,3.979,2.522,6.196,2.701
		c0.261,0.021,0.526,0.032,0.792,0.032c4.394,0,8.37-2.851,10.635-7.625c3.444-7.234,1.709-16.781-3.869-21.277
		C35.66,93.332,27.256,88.904,15.583,81.06c10.877-8.069,23.725-16.616,34.326-25.47c5.674-4.719,7.007-14.392,2.963-21.555
		C50.365,29.586,46.241,26.927,41.841,26.927L41.841,26.927z"/>
</g>
<g id="Shape_1_">
	<path fill="#9998D1" d="M140.889,145.044c-0.195,0-0.39-0.008-0.582-0.023c-3.825-0.312-7.044-3.566-8.403-8.495
		c-1.921-7,0.398-15.334,5.277-18.978c13.289-9.871,26.572-20.388,39.528-31.295c-12.356-10.733-19.21-16.456-32.483-25.913
		c-5.048-3.619-7.257-11.991-5.034-19.065c1.647-5.245,5.463-8.634,9.719-8.634c1.666,0,3.276,0.508,4.788,1.511
		c19.386,12.932,32.003,22.84,49.582,38.328c3.155,2.776,4.952,8.018,4.688,13.68c-0.258,5.572-2.465,10.756-5.761,13.529
		c-18.422,15.521-37.438,30.233-56.519,43.727C144.188,144.48,142.526,145.044,140.889,145.044z"/>
	<path fill="#9998D1" d="M148.91,35.141c1.21,0,2.448,0.371,3.634,1.157c19.362,12.916,31.768,22.66,49.337,38.14
		c2.582,2.271,4.066,6.727,3.839,11.592c-0.226,4.868-2.118,9.349-4.872,11.666c-18.768,15.812-37.599,30.338-56.368,43.611
		c-1.188,0.843-2.412,1.237-3.591,1.237c-0.141,0-0.281-0.006-0.42-0.017c-2.807-0.229-5.297-2.686-6.413-6.734
		c-1.629-5.934,0.265-13.097,4.381-16.17c13.985-10.389,27.987-21.496,41.951-33.337c-13.156-11.566-20.743-17.93-34.947-28.051
		c-4.175-2.993-6.009-10.139-4.124-16.137C142.684,37.745,145.702,35.142,148.91,35.141 M148.91,30.141L148.91,30.141
		c-5.228,0-9.877,4.047-11.845,10.31c-2.592,8.251-0.041,17.702,5.935,21.985c12.398,8.834,18.404,13.83,30.009,23.788
		c-12.177,10.176-24.626,19.996-37.074,29.243c-5.759,4.299-8.414,13.661-6.186,21.784c1.64,5.944,5.62,9.875,10.391,10.263
		c0.252,0.021,0.499,0.03,0.749,0.03c2.068,0,4.148-0.7,6.015-2.023c19.126-13.526,38.192-28.278,56.665-43.842
		c3.808-3.203,6.355-9.102,6.646-15.393c0.303-6.454-1.819-12.497-5.539-15.768c-17.651-15.552-30.351-25.522-49.813-38.506
		C153.013,30.786,150.958,30.141,148.91,30.141L148.91,30.141z"/>
</g>
<g id="Shape_2_">
	<path fill="#FF6A6E" d="M69.607,177.062c-0.751-0.111-1.494-0.354-2.211-0.738c-4.255-2.297-6.029-8.625-4.027-14.248
		C82.062,109.877,94.331,53.904,98.709-4.583c0.465-6.293,5.117-10.7,10.514-9.743c5.387,0.955,9.366,7.072,8.777,13.563
		c-5.365,60.044-18.827,117.434-38.899,170.868C77.293,174.912,73.327,177.621,69.607,177.062z"/>
	<path fill="#FF6A6E" d="M70.58,182.135c-0.573,0-1.15-0.043-1.715-0.128c-1.324-0.196-2.615-0.625-3.828-1.274
		c-6.413-3.461-9.208-12.389-6.379-20.333C77.691,107.25,89.488,51.62,93.723-4.956c0.61-8.265,6.644-14.5,14.033-14.5
		c0.776,0,1.563,0.07,2.339,0.207c7.924,1.404,13.705,9.9,12.884,18.938c-5.276,59.049-18.464,116.979-39.198,172.174
		C81.435,178.104,76.253,182.135,70.58,182.135z M107.756-9.456c-2.094,0-3.84,2.253-4.061,5.242
		c-4.303,57.477-16.287,113.991-35.619,167.976c-1.238,3.476-0.127,7.179,1.695,8.162c0.182,0.098,0.374,0.164,0.569,0.192
		c0.085,0.013,0.161,0.019,0.24,0.019c1.201,0,2.905-1.302,3.841-3.789C94.836,113.996,107.823,56.95,113.02-1.208
		c0.377-4.153-2.155-7.749-4.669-8.195C108.148-9.438,107.949-9.456,107.756-9.456z"/>
</g>
</svg>
